# xmcd
# 
# Track frame offsets:
#     150
#     20787
#     42575
#     68525
#     90975
#     111312
#     133887
#     157475
#     179000
#     201900
#     223425
#     243900
#     265137
#     292300
# 
# Disc length: 4188
# 
# Revision: 2
# Processed by: cddbd v1.5.2PL0 Copyright (c) Steve Scherf et al.
# Submitted via: fre:ac v1.0.17
# 
DISCID=ea105a0e
DTITLE=Various Artist - Best of Ballade カレント
DYEAR=1998
DGENRE=Pop
TTITLE0=工藤静香 - in the sky (english)
TTITLE1=工藤静香 - ワインひとくちの嘘
TTITLE2=工藤静香 - 夢
TTITLE3=工藤静香 - めちゃくちゃに泣いてしまいたい
TTITLE4=工藤静香 - 恋一夜
TTITLE5=工藤静香 - セレナーデ
TTITLE6=工藤静香 - 抱いてくれたらいいのに (english)
TTITLE7=工藤静香 - 恋模様
TTITLE8=工藤静香 - Venus
TTITLE9=工藤静香 - 雪・月・花
TTITLE10=工藤静香 - 微熱
TTITLE11=工藤静香 - Door
TTITLE12=工藤静香 - Ice Rain (english)
TTITLE13=工藤静香 - きらら
EXTD=
EXTT0=
EXTT1=
EXTT2=
EXTT3=
EXTT4=
EXTT5=
EXTT6=
EXTT7=
EXTT8=
EXTT9=
EXTT10=
EXTT11=
EXTT12=
EXTT13=
PLAYORDER=
